<svg width="21" height="20" viewBox="0 0 21 20" fill="none" xmlns="http://www.w3.org/2000/svg">
<path d="M1.38001 19.8399C1.17854 19.8381 0.985366 19.7594 0.840005 19.6199C0.698941 19.4776 0.619797 19.2853 0.619797 19.0849C0.619797 18.8845 0.698941 18.6922 0.840005 18.5499L19.1 0.379879C19.1635 0.287314 19.247 0.210187 19.3443 0.154186C19.4416 0.0981856 19.5502 0.0647393 19.6621 0.0563144C19.7741 0.0478895 19.8865 0.0647012 19.9911 0.105509C20.0957 0.146317 20.1897 0.21008 20.2664 0.292096C20.343 0.374112 20.4003 0.472288 20.4339 0.579385C20.4676 0.686481 20.4768 0.799765 20.4608 0.910881C20.4448 1.022 20.4041 1.12811 20.3417 1.2214C20.2792 1.31469 20.1966 1.39277 20.1 1.44988L1.90001 19.6199C1.76256 19.7591 1.5756 19.8382 1.38001 19.8399V19.8399Z" fill="#181C32"/>
<path d="M7.65 10.6098C7.65264 9.85471 7.95375 9.13133 8.48766 8.59742C9.02157 8.06351 9.74495 7.7624 10.5 7.75977C10.9252 7.75996 11.3449 7.85631 11.7276 8.04161C12.1103 8.2269 12.4461 8.49634 12.71 8.82977L8.71 12.8298C8.37764 12.5634 8.1097 12.2254 7.92616 11.841C7.74262 11.4566 7.64823 11.0357 7.65 10.6098V10.6098ZM10.21 13.4298C10.3066 13.4347 10.4034 13.4347 10.5 13.4298C11.2559 13.4298 11.9808 13.1295 12.5153 12.595C13.0497 12.0605 13.35 11.3356 13.35 10.5798C13.3549 10.4898 13.3549 10.3997 13.35 10.3098L10.21 13.4298Z" fill="#181C32"/>
<path opacity="0.3" d="M4.55 16.9998L7.65 13.9098C7.20449 13.5186 6.84405 13.0402 6.59102 12.504C6.338 11.9678 6.19777 11.3854 6.17903 10.7929C6.16029 10.2003 6.26343 9.6102 6.48208 9.05913C6.70072 8.50806 7.0302 8.00775 7.45011 7.58922C7.87001 7.17069 8.37139 6.84285 8.92317 6.62601C9.47496 6.40917 10.0654 6.30796 10.6579 6.32864C11.2504 6.34932 11.8323 6.49145 12.3677 6.74623C12.903 7.00101 13.3803 7.36302 13.77 7.8098L16.93 4.6598C15.1374 3.09765 12.8743 2.17904 10.5 2.0498C5.77 2.0498 0.5 6.6698 0.5 10.6098C0.5 12.7498 2.21 15.2198 4.55 16.9998Z" fill="#181C32"/>
<path opacity="0.3" d="M14.56 9.09986C14.7483 9.58119 14.8466 10.093 14.85 10.6099C14.8551 11.3145 14.6879 12.0096 14.3627 12.6347C14.0376 13.2599 13.5645 13.796 12.9847 14.1963C12.4049 14.5967 11.7359 14.8491 11.0362 14.9317C10.3364 15.0142 9.62706 14.9243 8.97 14.6699L5.83 17.7899C7.24145 18.6453 8.85031 19.1207 10.5 19.1699C15.5 19.1699 20.5 14.5799 20.5 10.6099C20.3378 8.6932 19.4594 6.90799 18.04 5.60986L14.56 9.09986Z" fill="black"/>
</svg>
