<svg width="25" height="24" viewBox="0 0 25 24" fill="none" xmlns="http://www.w3.org/2000/svg">
<path d="M12.5 14.8499C14.074 14.8499 15.35 13.5739 15.35 11.9999C15.35 10.4259 14.074 9.1499 12.5 9.1499C10.926 9.1499 9.65002 10.4259 9.65002 11.9999C9.65002 13.5739 10.926 14.8499 12.5 14.8499Z" fill="#17479D"/>
<path opacity="0.3" d="M12.5 14.8499C14.074 14.8499 15.35 13.5739 15.35 11.9999C15.35 10.4259 14.074 9.1499 12.5 9.1499C10.926 9.1499 9.65002 10.4259 9.65002 11.9999C9.65002 13.5739 10.926 14.8499 12.5 14.8499Z" fill="#17479D"/>
<path opacity="0.3" d="M12.5 3.43994C7.77 3.43994 2.5 8.05994 2.5 11.9999C2.5 15.7599 7.77 20.5599 12.5 20.5599C17.5 20.5599 22.5 15.9699 22.5 11.9999C22.5 8.17994 17.23 3.43994 12.5 3.43994ZM12.5 16.3499C11.6397 16.3499 10.7986 16.0948 10.0833 15.6168C9.36792 15.1389 8.81037 14.4595 8.48112 13.6646C8.15188 12.8698 8.06574 11.9951 8.23358 11.1513C8.40143 10.3075 8.81573 9.53239 9.42409 8.92403C10.0324 8.31567 10.8075 7.90137 11.6514 7.73353C12.4952 7.56568 13.3698 7.65182 14.1647 7.98107C14.9595 8.31031 15.6389 8.86786 16.1169 9.58321C16.5949 10.2986 16.85 11.1396 16.85 11.9999C16.85 13.1536 16.3917 14.2601 15.5759 15.0759C14.7601 15.8916 13.6537 16.3499 12.5 16.3499Z" fill="#17479D"/>
</svg>
